# OBJ generated by ONSHAPE BY PTC INC, 1.221 Units = meters
mtllib CannonBall.mtl
g Part 1
v -0.0240299 -0.0478905 0.0906804 
v 0.000314302 -0.0535789 0.0906824 
v 0.000424837 -0.0531059 0.0905896 
v -0.0239182 -0.0474122 0.0905866 
v 0.0004255 -0.0531061 0.0905884 
v 0.0115637 -0.0603793 0.0694172 
v 0.0116748 -0.0599041 0.069324 
v 0.000425633 -0.0531051 0.0905883 
v -0.00153113 -0.0614913 0.0481502 
v -0.0371248 -0.0490025 0.0694133 
v -0.0258754 -0.0558029 0.0481482 
v -0.00141953 -0.0610137 0.0480565 
v 0.011674 -0.0599012 0.0693211 
v -0.0257634 -0.0553239 0.0480542 
v -0.00142297 -0.0610085 0.0480556 
v -0.0370138 -0.0485275 0.0693201 
v -0.0257641 -0.0553254 0.0480551 
v -0.0261347 -0.0556458 0.0479616 
v -0.0373822 -0.0488456 0.0692278 
v -0.0370128 -0.0485262 0.069321 
v -0.0370107 -0.0485244 0.0693235 
v -0.0370102 -0.0485206 0.0693221 
v -0.0537335 -0.0299344 0.0692273 
v -0.053362 -0.0296131 0.0693211 
v -0.0312385 -0.0435347 0.0266949 
v -0.0588373 -0.0178233 0.0479606 
v -0.0475898 -0.0246235 0.0266944 
v -0.0308667 -0.0432132 0.0267887 
v -0.0472183 -0.0243022 0.0267881 
v -0.0308667 -0.0432129 0.0267888 
v -0.0258652 -0.0557594 0.0478306 
v -0.0309687 -0.0436489 0.0265646 
v -0.0308669 -0.0432134 0.0267881 
v -0.00142252 -0.0610102 0.0480549 
v -0.0015218 -0.0614476 0.0478306 
v -0.00142047 -0.0610139 0.0480533 
v -0.00977938 -0.0418524 0.0134214 
v 0.00841978 -0.0528525 0.0265646 
v 0.00852154 -0.052417 0.0267881 
v -0.00967745 -0.0414162 0.0136453 
v 0.0118647 -0.0603538 0.0692273 
v -0.00123077 -0.0614653 0.0479606 
v 0.00871224 -0.0528696 0.0266944 
v 0.0317507 -0.0431625 0.0266949 
v 0.0448462 -0.042051 0.0479616 
v 0.0349032 -0.0506467 0.0692278 
v 0.0347136 -0.0501967 0.069321 
v 0.0347091 -0.0501925 0.0693221 
v 0.044656 -0.0415996 0.0480551 
v 0.0347145 -0.050198 0.0693201 
v 0.0315599 -0.0427096 0.0267887 
v 0.0446548 -0.0415985 0.0480542 
v 0.0315596 -0.0427095 0.0267888 
v 0.000597663 -0.0535148 0.0908101 
v 0.0118476 -0.0603133 0.0695447 
v 0.0347125 -0.0501941 0.0693235 
v 0.0348862 -0.0506063 0.0695472 
v 0.0166833 -0.039606 0.103955 
v 0.0378748 -0.0378085 0.0908141 
v 0.000426316 -0.0531059 0.0905891 
v 0.0165134 -0.0392026 0.103736 
v 0.0377006 -0.0373987 0.0905866 
v 0.0377032 -0.0374011 0.0905931 
v 0.0165167 -0.0391938 0.103728 
v 0.0165168 -0.0391933 0.103727 
v 0.000357351 -0.0534009 0.0909857 
v 0.0164471 -0.0394918 0.104128 
v -0.0239876 -0.0477094 0.0909861 
v 0.0381209 -0.0376528 0.0906804 
v 0.0351319 -0.0504503 0.0694133 
v 0.0450757 -0.041853 0.0481482 
v 0.0580085 -0.020458 0.0481502 
v 0.0609975 -0.0076605 0.0694172 
v 0.0510537 -0.0162579 0.0906824 
v 0.050638 -0.0160066 0.0905896 
v 0.0506384 -0.016006 0.0905884 
v 0.0605799 -0.00740803 0.069324 
v 0.0506375 -0.0160056 0.0905883 
v 0.0575888 -0.0202043 0.0480565 
v 0.0605769 -0.00740785 0.0693211 
v 0.0575828 -0.020206 0.0480556 
v 0.0450375 -0.0418299 0.0478306 
v 0.0319427 -0.0429412 0.0265646 
v 0.03156 -0.0427098 0.0267881 
v 0.0575846 -0.0202061 0.0480549 
v 0.0579698 -0.0204357 0.0478306 
v 0.0575887 -0.0202053 0.0480533 
v 0.036782 -0.0222338 0.0134214 
v 0.0528676 -0.00832464 0.0265646 
v 0.0524849 -0.00809329 0.0267881 
v 0.0363986 -0.0220021 0.0136453 
v 0.00863941 -0.0526968 0.0263908 
v 0.0316779 -0.0429896 0.0263908 
v 0.0363993 -0.0220025 0.0136433 
v 0.0365169 -0.0222817 0.0132468 
v -0.00967762 -0.0414169 0.0136433 
v -0.00955999 -0.0416961 0.0132468 
v -0.00472095 -0.0209882 0.000102687 
v 0.0183175 -0.011281 0.000102687 
v -0.00483881 -0.0207085 0.0005 
v 0.0181996 -0.0110012 0.0005 
v -0.0310965 -0.0434119 0.0263908 
v -0.00990679 -0.0416151 0.0132468 
v -0.0474479 -0.0245008 0.0263908 
v -0.00506843 -0.020907 0.000102687 
v -0.0426095 -0.0037927 0.0132468 
v -0.0214198 -0.00199582 0.000102687 
v -0.0211902 -0.00179728 0.0005 
v -0.0423804 -0.00359456 0.0136433 
v 0.0610663 -0.00736634 0.0692273 
v 0.0580766 -0.0201643 0.0479606 
v 0.0529742 -0.00805178 0.0266944 
v 0.0508615 0.0168588 0.0266949 
v 0.0538512 0.0296568 0.0479616 
v 0.0589535 0.0175442 0.0692278 
v 0.0506384 -0.0160052 0.0905891 
v 0.0508977 -0.0161619 0.0909857 
v 0.0379617 -0.0375566 0.0909861 
v 0.0167694 -0.0393509 0.104129 
v 0.0165139 -0.0391964 0.103738 
v 0.00819179 -0.0198912 0.117271 
v 0.00825987 -0.0196 0.11688 
v -0.0161532 -0.0141997 0.117272 
v -0.0322429 -0.0281088 0.104129 
v 0.0085131 -0.0197506 0.117272 
v 0.00826063 -0.0195979 0.116886 
v 0.00825674 -0.019597 0.116877 
v 0.0214491 0.00164413 0.117271 
v 0.0426414 0.00343845 0.104128 
v 0.0423868 0.00359089 0.103736 
v 0.0423795 0.00359678 0.103728 
v 0.0510803 -0.0159686 0.0908101 
v 0.042823 0.00362785 0.103955 
v 0.0610225 -0.00737008 0.0695447 
v 0.058467 0.017503 0.069321 
v 0.0584616 0.0175 0.0693221 
v 0.053363 0.0296154 0.0480551 
v 0.0584685 0.0175034 0.0693201 
v 0.0503718 0.0168172 0.0267887 
v 0.0533616 0.0296146 0.0480542 
v 0.0503716 0.016817 0.0267888 
v 0.0527873 -0.00806764 0.0263908 
v 0.0367011 -0.0219769 0.0132468 
v 0.050372 0.0168173 0.0267881 
v 0.0506745 0.0168429 0.0263908 
v 0.0584642 0.0175027 0.0693235 
v 0.0589099 0.0175405 0.0695472 
v 0.047662 0.0243376 0.0908141 
v 0.0472215 0.0243003 0.0905931 
v 0.042379 0.00359697 0.103727 
v 0.0472184 0.0242986 0.0905866 
v 0.0423811 0.00359328 0.103738 
v 0.0211931 0.00179888 0.11688 
v 0.0211929 0.00179875 0.11688 
v 0.00826515 -0.019599 0.116891 
v 0.0185021 -0.0109756 0.000102687 
v 0.0163893 0.013935 0.000102687 
v 0.0324755 0.0278442 0.0132468 
v 0.0160868 0.0139093 0.0005 
v -0.00483881 -0.0207085 0 
v 0.0181996 -0.0110012 0 
v -0.0211902 -0.00179728 0 
v -0.00825744 0.0195977 0 
v 0.0160868 0.0139093 0 
v -0.00825744 0.0195977 0.0005 
v 0.0321736 0.0278186 0.0136433 
v -0.0160804 -0.0139161 0.116889 
v -0.0160839 -0.0139033 0.116873 
v -0.0160817 -0.0139013 0.11687 
v -0.0160804 -0.0139161 0.117374 
v 0.00826515 -0.019599 0.117374 
v -0.0160882 -0.0139123 0.11688 
v -0.0321749 -0.027818 0.103738 
v -0.0321711 -0.0278198 0.103727 
v -0.0239197 -0.0474154 0.0905931 
v -0.037349 -0.0488169 0.0695472 
v -0.0242541 -0.0477045 0.0908141 
v -0.0537003 -0.0299056 0.0695447 
v -0.0325121 -0.0281057 0.103955 
v -0.0507109 -0.0171054 0.0908101 
v -0.0321716 -0.0278199 0.103728 
v -0.032181 -0.0278194 0.103736 
v -0.0163863 -0.0139376 0.117271 
v -0.0324765 -0.0278457 0.104128 
v -0.0506768 -0.0168416 0.0909857 
v -0.0503749 -0.0168161 0.0905891 
v -0.0503754 -0.0168154 0.0905884 
v -0.0503744 -0.0168152 0.0905883 
v -0.0533645 -0.0296147 0.069324 
v 0.021193 0.00179894 0.11688 
v 0.021193 0.00179894 0.117374 
v 0.00483733 0.0207064 0.117374 
v -0.0181989 0.0109939 0.117374 
v -0.0181989 0.0109939 0.116882 
v 0.00483733 0.0207064 0.11688 
v -0.0181892 0.010998 0.116868 
v -0.0184963 0.0109747 0.117272 
v -0.018193 0.0110004 0.116873 
v -0.0366966 0.0219787 0.104129 
v -0.0527869 0.00807059 0.0909861 
v -0.0503754 -0.0168147 0.0905896 
v -0.0524829 0.00809635 0.0905866 
v -0.0508594 -0.0168557 0.0906824 
v -0.0538508 -0.029656 0.0694172 
v -0.0589548 -0.0175457 0.0481502 
v -0.0584662 -0.0175042 0.0480565 
v -0.0584622 -0.0174993 0.0480556 
v -0.0584637 -0.0175003 0.0480549 
v -0.0610676 0.0073649 0.0481482 
v -0.0605775 0.00740646 0.0480542 
v -0.0529722 0.00805485 0.0906804 
v -0.0580763 0.0201652 0.0694133 
v -0.0584666 -0.0175034 0.0480533 
v -0.018203 0.0110017 0.11688 
v -0.0363991 0.0220039 0.103738 
v 0.00472184 0.0209824 0.117272 
v -0.0183191 0.0112773 0.117271 
v 0.00483885 0.0207046 0.116877 
v 0.0211917 0.00180049 0.116886 
v 0.00483968 0.0207037 0.116874 
v 0.042607 0.00378857 0.104129 
v 0.0214146 0.00199319 0.117272 
v 0.0474493 0.0244981 0.0909861 
v 0.00506447 0.0209073 0.117271 
v 0.0048382 0.0207117 0.11688 
v 0.00956314 0.0416924 0.104129 
v 0.00967906 0.0414172 0.103738 
v 0.0310991 0.0434123 0.0909857 
v 0.00990675 0.0416169 0.104128 
v 0.00967523 0.0414167 0.103728 
v 0.0096749 0.0414163 0.103727 
v 0.0308699 0.0432141 0.0905891 
v 0.00968312 0.0414219 0.103736 
v 0.0475899 0.0246198 0.0906804 
v 0.0588375 0.0178224 0.0694133 
v 0.0308712 0.0432133 0.0905896 
v 0.0308701 0.0432131 0.0905883 
v 0.0312386 0.043531 0.0906824 
v 0.0537337 0.0299363 0.0481482 
v 0.0373824 0.0488475 0.0481502 
v 0.0261348 0.0556449 0.0694172 
v 0.0308708 0.0432139 0.0905884 
v 0.0257657 0.0553257 0.069324 
v 0.0309717 0.0436457 0.0908101 
v 0.00978274 0.0418482 0.103955 
v -0.00841807 0.0528499 0.0908141 
v -0.00851868 0.0524195 0.0905931 
v -0.00863646 0.0526973 0.0909861 
v -0.00851801 0.0524161 0.0905866 
v -0.0316774 0.0429922 0.0909857 
v -0.0365187 0.0222822 0.104128 
v -0.0363999 0.0220002 0.103728 
v -0.0363996 0.0219997 0.103727 
v -0.0524863 0.00809677 0.0905931 
v 0.0370114 0.0485268 0.0480565 
v 0.0257646 0.0553229 0.0693211 
v 0.0370111 0.0485205 0.0480556 
v 0.0258664 0.0557584 0.0695447 
v 0.00152215 0.0614469 0.0695472 
v 0.00142035 0.0610114 0.0693235 
v 0.00142217 0.061008 0.0693221 
v -0.0315597 0.042713 0.0905891 
v -0.0364023 0.0220093 0.103736 
v -0.0528646 0.00832547 0.0908141 
v -0.0367769 0.0222357 0.103955 
v -0.0579691 0.0204358 0.0695472 
v -0.0575863 0.0202044 0.0693235 
v -0.0319387 0.0429431 0.0908101 
v -0.0450362 0.0418307 0.0695447 
v -0.0315592 0.0427136 0.0905884 
v -0.0315587 0.0427128 0.0905883 
v -0.0315586 0.0427139 0.0905896 
v -0.0446535 0.0415993 0.0693211 
v -0.0575826 0.0202051 0.0693221 
v -0.0575888 0.0202058 0.069321 
v -0.0575903 0.0202064 0.0693201 
v -0.0605791 0.00740666 0.0480551 
v -0.0609983 0.00766007 0.0479616 
v -0.0580066 0.0204584 0.0692278 
v -0.0450738 0.0418533 0.0692273 
v -0.0446558 0.0416012 0.069324 
v -0.0317472 0.0431615 0.0906824 
v -0.0448453 0.0420509 0.0694172 
v -0.0087087 0.0528687 0.0906804 
v -0.034905 0.0506475 0.0481502 
v -0.0347145 0.0501955 0.0480565 
v 0.00123164 0.0614652 0.0694133 
v -0.0118665 0.0603546 0.0481482 
v 0.00142099 0.0610141 0.069321 
v 0.00142103 0.0610157 0.0693201 
v 0.0258763 0.0558011 0.0692273 
v 0.0015321 0.0614896 0.0692278 
v 0.0370117 0.0485221 0.0480549 
v 0.0371241 0.049003 0.0479606 
v -0.0116755 0.0599013 0.0480542 
v -0.0347087 0.0501933 0.0480556 
v -0.03471 0.0501944 0.0480549 
v -0.0351327 0.0504499 0.0479606 
v -0.0510572 0.0162566 0.0266949 
v -0.0381243 0.0376515 0.0266944 
v -0.0506366 0.0160024 0.0267887 
v -0.0610231 0.00736866 0.0478306 
v -0.0589104 -0.017541 0.0478306 
v -0.0116758 0.0599029 0.0480551 
v -0.0115644 0.0603799 0.0479616 
v -0.000316585 0.0535818 0.0266949 
v 0.0240276 0.0478934 0.0266944 
v -0.000428409 0.0531033 0.0267887 
v -0.037704 0.0373974 0.0267881 
v -0.0506363 0.0160024 0.0267888 
v -0.0510824 0.0159647 0.0265646 
v -0.0506368 0.0160025 0.0267881 
v -0.0476639 -0.02434 0.0265646 
v -0.042826 -0.00363235 0.0134214 
v -0.0423796 -0.0035945 0.0136453 
v -0.0508966 0.0161595 0.0263908 
v -0.0426396 -0.00343784 0.0132468 
v -0.02145 -0.00164025 0.000102687 
v -0.0379638 0.0375545 0.0263908 
v -0.00851722 0.0197547 0.000102687 
v -0.0167741 0.0393521 0.0132468 
v -0.0347139 0.0501962 0.0480533 
v -0.0118492 0.0603135 0.0478306 
v -0.0348868 0.0506066 0.0478306 
v 0.0370123 0.0485264 0.0480533 
v 0.0239159 0.0474151 0.0267881 
v 0.0536999 0.0299071 0.0478306 
v 0.0373491 0.0488176 0.0478306 
v 0.0507103 0.0171098 0.0265646 
v 0.032173 0.0278181 0.0136453 
v 0.0242542 0.0477076 0.0265646 
v 0.0325119 0.0281111 0.0134214 
v -0.000428257 0.053103 0.0267888 
v -0.000602008 0.0535156 0.0265646 
v -0.000428355 0.0531035 0.0267881 
v 0.023985 0.0477107 0.0263908 
v 0.0322425 0.0281136 0.0132468 
v 0.0161559 0.0142049 0.000102687 
v -0.000359287 0.0533991 0.0263908 
v -0.00818838 0.0198933 0.000102687 
v -0.016446 0.0394903 0.0132468 
v -0.0165149 0.0391954 0.0136433 
v -0.0165146 0.0391947 0.0136453 
v -0.0378777 0.0378096 0.0265646 
v -0.0166885 0.0396074 0.0134214 
v -0.00817626 0.019405 0.001 
v -0.0209819 -0.00177961 0.001 
v -0.00479124 -0.0205049 0.001 
v 0.0180207 -0.0108931 0.001 
v 0.0159287 0.0137726 0.001 
v -0.0163774 0.038869 0.0140549 
v -0.0420275 -0.00356463 0.0140549 
v -0.0373584 0.0370891 0.0270695 
v -0.0502031 0.0158397 0.0270695 
v 0.0319057 0.027587 0.0140549 
v 0.0237295 0.0469911 0.0270695 
v -0.000449147 0.0526408 0.0270695 
v -0.0115863 0.0593722 0.0481277 
v -0.0343966 0.0497614 0.0481283 
v -0.0468182 -0.0240688 0.0270695 
v -0.0305781 -0.0428513 0.0270695 
v -0.00959705 -0.0410721 0.0140549 
v -0.0600466 0.00732775 0.0481277 
v -0.0579551 -0.017336 0.0481283 
v -0.0442696 0.0412236 0.0692487 
v -0.0570751 0.02004 0.0692508 
v 0.0360962 -0.0218193 0.0140549 
v 0.00842312 -0.0519644 0.0270695 
v 0.0313048 -0.0423233 0.0270695 
v 0.052024 -0.00804704 0.0270695 
v 0.0499256 0.0166941 0.0270695 
v 0.0528859 0.0293663 0.0481277 
v 0.0366968 0.0480903 0.0481283 
v 0.0255259 0.0548417 0.0692487 
v 0.00142201 0.0604743 0.0692508 
v -0.00842145 0.0519619 0.0903091 
v -0.031299 0.0423226 0.0903109 
v -0.0255245 -0.0548434 0.0481277 
v -0.00142156 -0.0604757 0.0481283 
v -0.0528861 -0.0293641 0.0692487 
v -0.0366964 -0.0480889 0.0692508 
v -0.0520211 0.00804783 0.0903091 
v -0.0499231 -0.0166888 0.0903109 
v -0.0360915 0.0218213 0.103321 
v 0.0442716 -0.0412228 0.0481277 
v 0.0570765 -0.02004 0.0481283 
v 0.0115842 -0.0593717 0.0692487 
v 0.0343955 -0.0497606 0.0692508 
v 0.0600455 -0.00732958 0.0692487 
v 0.057954 0.0173352 0.0692508 
v 0.0468163 0.0240664 0.0903091 
v 0.0305792 0.0428455 0.0903109 
v 0.00960044 0.0410683 0.103321 
v -0.0237293 -0.0469881 0.0903091 
v 0.000444868 -0.0526368 0.0903109 
v -0.0319062 -0.0275819 0.103321 
v 0.0373555 -0.037088 0.0903091 
v 0.050198 -0.0158426 0.0903109 
v 0.0163724 -0.0388679 0.103321 
v 0.0420249 0.00356023 0.103321 
v 0.00817235 -0.0194011 0.116374 
v 0.0209769 0.0017771 0.116374 
v -0.0159261 -0.0137676 0.116374 
v 0.0047921 0.0204994 0.116374 
v -0.0180153 0.0108922 0.116374 
vn 0.0426184 0.182729 0.982239 
vn 0.864618 -0.105689 0.491188 
vn -0.22351 -0.956471 0.187633 
vn 0.822 -0.288417 -0.491052 
vn -0.0426184 -0.182729 -0.982239 
vn -0.864618 0.105689 -0.491188 
vn 0.495484 -0.71643 0.491145 
vn -0.822 0.288417 0.491052 
vn -0.141882 -0.12265 0.982256 
vn -0.743024 -0.642449 -0.187546 
vn 0.637367 -0.59378 -0.49111 
vn 0.141882 0.12265 -0.982256 
vn -0.957551 0.081841 0.276401 
vn -0.101746 -0.435436 0.894451 
vn -0.203519 -0.87099 -0.447165 
vn 0.894669 -0.350955 0.276401 
vn 0.654682 0.218534 -0.723626 
vn -0.490054 0.486017 -0.723626 
vn -0.761675 -0.422684 0.49111 
vn -0.834478 -0.249845 -0.491145 
vn 0.381398 -0.905186 -0.187546 
vn 0.072803 -0.172839 0.982256 
vn 0.834478 0.249845 0.491145 
vn 0.761675 0.422684 -0.49111 
vn -0.072803 0.172839 -0.982256 
vn -0.822752 -0.496622 -0.276487 
vn 0.17373 -0.412097 -0.894424 
vn 0.347246 -0.824266 0.44722 
vn -0.682219 0.105168 0.723545 
vn 0.930123 0.241932 -0.276297 
vn 0.401118 0.561619 0.723663 
vn 0.752828 -0.584063 -0.303515 
vn -0.180918 -0.773828 -0.607008 
vn -0.528313 -0.692643 0.491052 
vn -0.367698 -0.789641 -0.491188 
vn 0.84059 -0.508137 0.187633 
vn -0.160615 0.0969987 0.982239 
vn 0.367698 0.789641 0.491188 
vn 0.528313 0.692643 -0.491052 
vn 0.160615 -0.0969987 -0.982239 
vn -0.373735 -0.885395 0.276401 
vn 0.382683 -0.231323 0.894451 
vn 0.76547 -0.462708 -0.447165 
vn 0.610246 0.74243 0.276401 
vn -0.00553037 0.69017 -0.723626 
vn -0.613664 -0.315881 -0.723626 
vn 0.308544 -0.732279 0.607098 
vn 0.952347 -0.0298718 0.303549 
vn -0.643803 -0.702407 0.303549 
vn 0.235729 -0.559464 -0.794627 
vn -0.308544 0.732279 -0.607098 
vn 0.643803 0.702407 -0.303549 
vn -0.952347 0.0298718 -0.303549 
vn 0.265882 -0.914967 0.303549 
vn -0.601093 -0.519729 0.607098 
vn 0.866975 -0.395238 -0.303549 
vn -0.459238 -0.397076 -0.794627 
vn 0.601093 0.519729 -0.607098 
vn -0.265882 0.914967 -0.303549 
vn 0.166626 -0.855013 0.49111 
vn -0.0202513 -0.870842 -0.491145 
vn 0.978742 0.0830136 -0.187546 
vn 0.680048 -0.411189 -0.607008 
vn -0.108065 -0.946686 -0.303493 
vn 0.933746 0.189766 0.303493 
vn -0.138174 -0.591072 0.794696 
vn -0.788113 -0.535496 0.303515 
vn 0.519445 -0.314062 0.794696 
vn 0.788113 0.535496 -0.303515 
vn -0.310838 -0.61633 0.723545 
vn 0.218071 -0.935949 -0.276487 
vn 0.186877 0.0158295 0.982256 
vn 0.0202513 0.870842 0.491145 
vn -0.166626 0.855013 -0.49111 
vn -0.186877 -0.0158295 -0.982256 
vn 0.469082 -0.829349 0.303549 
vn 0.791784 0.0671564 0.607098 
vn 0.445613 0.0378818 -0.894424 
vn 0.891228 0.0755389 0.44722 
vn -0.410179 0.555036 0.723663 
vn 0.0573327 0.959361 -0.276297 
vn 0.108065 0.946686 0.303493 
vn -0.680048 0.411189 0.607008 
vn -0.322701 -0.896505 -0.303549 
vn 0.604927 0.0513078 -0.794627 
vn -0.791784 -0.0671564 -0.607098 
vn 0.388288 -0.921538 0 
vn -0.756447 -0.654055 0 
vn 0 0 -1 
vn 0.996422 0.0845132 0 
vn 0.227535 0.97377 0 
vn -0.855798 0.51731 0 
vn -0.469082 0.829349 -0.303549 
vn 0.180918 0.773828 0.607008 
vn -0.227313 -0.973822 -4.23338e-10 
vn -0.752828 0.584063 0.303515 
vn -0.933746 -0.189766 -0.303493 
vn 0.517515 -0.809838 -0.276297 
vn -0.338242 -0.292572 -0.894424 
vn -0.676618 -0.584963 0.44722 
vn 0.658084 -0.207936 0.723663 
vn 0.469021 -0.829404 0.303493 
vn -0.32284 -0.896467 -0.303515 
vn -0.110797 0.681327 0.723545 
vn -0.72656 0.629019 -0.276487 
vn 0.855916 -0.517115 1.10874e-09 
vn -1.36546e-09 -1.15988e-10 1 
vn -0.996403 -0.0847403 -1.37038e-09 
vn -0.388498 0.921449 -4.23602e-10 
vn 0.791861 0.0670627 0.607008 
vn -0.604841 -0.0512403 0.794696 
vn -0.791861 -0.0670627 -0.607008 
vn 0.166666 -0.85496 0.491188 
vn -0.0202891 -0.870894 -0.491052 
vn -0.637367 0.59378 0.49111 
vn -0.186955 -0.0159337 -0.982239 
vn -0.978727 -0.082995 0.187633 
vn 0.186955 0.0159337 0.982239 
vn -0.495484 0.71643 -0.491145 
vn 0.32284 0.896467 0.303515 
vn 0.308479 -0.732381 0.607008 
vn 0.756298 0.654227 1.10858e-09 
vn 0.265747 -0.915018 0.303515 
vn 0.866958 -0.395318 -0.303493 
vn -0.601211 -0.519699 0.607008 
vn 0.952354 -0.0300156 0.303515 
vn 0.459208 0.396971 0.794696 
vn -0.866958 0.395318 0.303493 
vn -0.265747 0.915018 -0.303515 
vn 0.495484 -0.716494 0.491052 
vn 0.601211 0.519699 -0.607008 
vn -0.141884 -0.12278 0.982239 
vn 0.637369 -0.593714 -0.491188 
vn 0.743023 0.642425 0.187633 
vn -0.637369 0.593714 0.491188 
vn 0.49011 -0.48608 0.723545 
vn -0.654623 -0.218588 0.723663 
vn 0.643875 0.702366 -0.303493 
vn -0.235639 0.559404 0.794696 
vn -0.643875 -0.702366 0.303493 
vn -0.469021 0.829404 -0.303493 
vn -0.495484 0.716494 -0.491052 
vn 0.141884 0.12278 -0.982239 
vn 0.957528 -0.0818259 -0.276487 
vn 0.203563 0.870951 0.44722 
vn -0.894689 0.350985 -0.276297 
vn 0.101674 0.435509 -0.894424 
vn -0.952354 0.0300156 -0.303515 
vn 0.00560027 -0.690131 0.723663 
vn -0.610281 -0.74244 -0.276297 
vn -0.76542 0.462739 0.44722 
vn 0.613742 0.315916 0.723545 
vn -0.308479 0.732381 -0.607008 
vn -0.382775 0.231278 -0.894424 
vn 0.0202891 0.870894 0.491052 
vn -0.166666 0.85496 -0.491188 
vn -0.528252 -0.692623 0.491145 
vn -0.160491 0.0970373 0.982256 
vn 0.373713 0.885377 -0.276487 
vn -0.761613 -0.422706 0.491188 
vn 0.0729261 -0.172881 0.982239 
vn -0.834539 -0.249825 -0.491052 
vn -0.381376 0.905177 0.187633 
vn 0.834539 0.249825 0.491052 
vn 0.0426934 0.182622 0.982256 
vn 0.864656 -0.105743 0.49111 
vn -0.0729261 0.172881 -0.982239 
vn 0.367761 0.78966 0.49111 
vn -0.840613 0.50813 -0.187546 
vn -0.367761 -0.78966 -0.49111 
vn -0.445566 -0.0377914 0.894451 
vn 0.761613 0.422706 -0.491188 
vn -0.821962 0.288365 0.491145 
vn 0.223497 0.956491 -0.187546 
vn -0.864656 0.105743 -0.49111 
vn 0.160491 -0.0970373 -0.982256 
vn -0.218064 0.935976 0.276401 
vn -0.891251 -0.0755929 -0.447165 
vn -0.0573105 -0.959332 0.276401 
vn 0.410146 -0.555108 -0.723626 
vn -0.866975 0.395238 0.303549 
vn 0.310795 0.616256 -0.723626 
vn -0.788023 -0.535609 0.303549 
vn -0.107983 -0.946677 -0.303549 
vn -0.68004 0.411068 0.607098 
vn -0.519554 0.314058 -0.794627 
vn 0.68004 -0.411068 -0.607098 
vn 0.528252 0.692623 -0.491145 
vn -0.173629 0.41208 0.894451 
vn 0.821962 -0.288365 -0.491145 
vn 0.338257 0.292471 0.894451 
vn 0.72657 -0.629045 0.276401 
vn 0.322701 0.896505 0.303549 
vn 0.676605 0.58502 -0.447165 
vn -0.517516 0.809802 0.276401 
vn -0.6581 0.208015 -0.723626 
vn 0.110788 -0.681242 -0.723626 
vn -0.0426934 -0.182622 -0.982256 
vn 0.82278 0.496624 0.276401 
vn 0.933712 0.189841 0.303549 
vn 0.752907 -0.583943 -0.303549 
vn 0.180805 0.773784 0.607098 
vn 0.138136 0.591174 -0.794627 
vn -0.752907 0.583943 0.303549 
vn -0.180805 -0.773784 -0.607098 
vn 0.788023 0.535609 -0.303549 
vn -0.933712 -0.189841 -0.303549 
vn 0.107983 0.946677 0.303549 
vn -0.347305 0.824271 -0.447165 
vn -0.930089 -0.241944 0.276401 
vn -0.401198 -0.56161 -0.723626 
vn 0.682135 -0.10515 -0.723626 
vn 0 0 1 
vn 0.519554 -0.314058 0.794627 
vn -0.138136 -0.591174 0.794627 
vn 0.347305 -0.824271 0.447165 
vn 0.459238 0.397076 0.794627 
vn 0.891251 0.0755929 0.447165 
vn 0.840613 -0.50813 0.187546 
vn -0.235729 0.559464 0.794627 
vn -0.604927 -0.0513078 0.794627 
vn -0.676605 -0.58502 0.447165 
vn -0.223497 -0.956491 0.187546 
vn 0.381376 -0.905177 -0.187633 
vn 0.203519 0.87099 0.447165 
vn 0.743024 0.642449 0.187546 
vn 0.978727 0.082995 -0.187633 
vn 0.76542 -0.462739 -0.44722 
vn -0.76547 0.462708 0.447165 
vn -0.381398 0.905186 0.187546 
vn -0.978742 -0.0830136 0.187546 
vn -0.743023 -0.642425 -0.187633 
vn -0.203563 -0.870951 -0.44722 
vn 0.22351 0.956471 -0.187633 
vn 0.676618 0.584963 -0.44722 
vn -0.84059 0.508137 -0.187633 
vn -0.347246 0.824266 -0.44722 
vn -0.891228 -0.0755389 -0.44722 
vn -0.519445 0.314062 -0.794696 
vn 0.138174 0.591072 -0.794696 
vn -0.459208 -0.396971 -0.794696 
vn 0.604841 0.0512403 -0.794696 
vn 0.235639 -0.559404 -0.794696 
vn 1.36546e-09 1.15988e-10 -1 
usemtl 0.231373_0.380392_0.705882_0.000000_0.000000
o mesh0
f 1//1 2//1 3//1 
f 3//1 4//1 1//1 
o mesh1
f 3//2 2//2 5//2 
f 6//2 7//2 5//2 
f 5//2 2//2 6//2 
f 5//2 8//2 3//2 
o mesh2
f 1//3 9//3 6//3 
f 9//3 1//3 10//3 
f 10//3 11//3 9//3 
f 6//3 2//3 1//3 
o mesh3
f 9//4 12//4 13//4 
f 13//4 7//4 9//4 
f 7//4 6//4 9//4 
o mesh4
f 11//5 14//5 15//5 
f 15//5 9//5 11//5 
f 15//5 12//5 9//5 
o mesh5
f 10//6 16//6 17//6 
f 17//6 11//6 10//6 
f 17//6 14//6 11//6 
o mesh6
f 18//7 17//7 16//7 
f 16//7 19//7 18//7 
f 16//7 20//7 19//7 
o mesh7
f 1//8 4//8 21//8 
f 21//8 22//8 20//8 
f 21//8 10//8 1//8 
f 21//8 16//8 10//8 
f 20//8 16//8 21//8 
o mesh8
f 23//9 20//9 22//9 
f 23//9 19//9 20//9 
f 22//9 24//9 23//9 
o mesh9
f 25//10 18//10 19//10 
f 25//10 23//10 26//10 
f 26//10 27//10 25//10 
f 19//10 23//10 25//10 
o mesh10
f 25//11 28//11 14//11 
f 14//11 18//11 25//11 
f 14//11 17//11 18//11 
o mesh11
f 27//12 29//12 30//12 
f 30//12 28//12 27//12 
f 28//12 25//12 27//12 
o mesh12
f 31//13 14//13 28//13 
f 28//13 32//13 31//13 
f 28//13 33//13 32//13 
f 28//13 30//13 33//13 
o mesh13
f 31//14 34//14 15//14 
f 31//14 35//14 36//14 
f 36//14 34//14 31//14 
f 15//14 14//14 31//14 
o mesh14
f 35//15 32//15 37//15 
f 37//15 38//15 35//15 
f 35//15 31//15 32//15 
o mesh15
f 38//16 39//16 36//16 
f 36//16 35//16 38//16 
o mesh16
f 37//17 40//17 39//17 
f 39//17 38//17 37//17 
o mesh17
f 37//18 32//18 33//18 
f 33//18 40//18 37//18 
o mesh18
f 12//19 15//19 34//19 
f 41//19 13//19 12//19 
f 12//19 42//19 41//19 
f 34//19 42//19 12//19 
o mesh19
f 42//20 34//20 36//20 
f 36//20 43//20 42//20 
f 36//20 39//20 43//20 
o mesh20
f 41//21 44//21 45//21 
f 44//21 41//21 42//21 
f 42//21 43//21 44//21 
f 45//21 46//21 41//21 
o mesh21
f 41//22 47//22 48//22 
f 41//22 46//22 47//22 
f 48//22 13//22 41//22 
o mesh22
f 45//23 49//23 50//23 
f 50//23 46//23 45//23 
f 50//23 47//23 46//23 
o mesh23
f 44//24 51//24 52//24 
f 52//24 45//24 44//24 
f 52//24 49//24 45//24 
o mesh24
f 43//25 39//25 53//25 
f 53//25 51//25 43//25 
f 51//25 44//25 43//25 
o mesh25
f 54//26 5//26 7//26 
f 7//26 55//26 54//26 
f 7//26 13//26 55//26 
o mesh26
f 55//27 13//27 48//27 
f 48//27 56//27 55//27 
f 56//27 57//27 55//27 
o mesh27
f 57//28 58//28 54//28 
f 54//28 55//28 57//28 
f 57//28 59//28 58//28 
o mesh28
f 5//29 54//29 60//29 
f 58//29 61//29 60//29 
f 60//29 54//29 58//29 
f 60//29 8//29 5//29 
o mesh29
f 57//30 56//30 62//30 
f 62//30 63//30 57//30 
f 63//30 59//30 57//30 
o mesh30
f 59//31 64//31 61//31 
f 59//31 63//31 65//31 
f 65//31 64//31 59//31 
f 61//31 58//31 59//31 
o mesh31
f 66//32 60//32 61//32 
f 61//32 67//32 66//32 
f 61//32 64//32 67//32 
o mesh32
f 60//33 66//33 3//33 
f 68//33 4//33 3//33 
f 3//33 66//33 68//33 
f 3//33 8//33 60//33 
o mesh33
f 69//34 62//34 56//34 
f 56//34 48//34 47//34 
f 56//34 70//34 69//34 
f 56//34 50//34 70//34 
f 47//34 50//34 56//34 
o mesh34
f 70//35 50//35 49//35 
f 49//35 71//35 70//35 
f 49//35 52//35 71//35 
o mesh35
f 72//36 73//36 74//36 
f 72//36 69//36 70//36 
f 70//36 71//36 72//36 
f 74//36 69//36 72//36 
o mesh36
f 69//37 74//37 75//37 
f 75//37 62//37 69//37 
o mesh37
f 75//38 74//38 76//38 
f 73//38 77//38 76//38 
f 76//38 74//38 73//38 
f 76//38 78//38 75//38 
o mesh38
f 72//39 79//39 80//39 
f 80//39 77//39 72//39 
f 77//39 73//39 72//39 
o mesh39
f 71//40 52//40 81//40 
f 81//40 72//40 71//40 
f 81//40 79//40 72//40 
o mesh40
f 82//41 52//41 51//41 
f 51//41 83//41 82//41 
f 51//41 84//41 83//41 
f 51//41 53//41 84//41 
o mesh41
f 82//42 85//42 81//42 
f 82//42 86//42 87//42 
f 87//42 85//42 82//42 
f 81//42 52//42 82//42 
o mesh42
f 83//43 88//43 89//43 
f 89//43 86//43 83//43 
f 86//43 82//43 83//43 
o mesh43
f 89//44 90//44 87//44 
f 87//44 86//44 89//44 
o mesh44
f 88//45 91//45 90//45 
f 90//45 89//45 88//45 
o mesh45
f 88//46 83//46 84//46 
f 84//46 91//46 88//46 
o mesh46
f 92//47 84//47 53//47 
f 92//47 93//47 84//47 
f 53//47 39//47 92//47 
o mesh47
f 93//48 94//48 91//48 
f 93//48 95//48 94//48 
f 91//48 84//48 93//48 
o mesh48
f 92//49 39//49 40//49 
f 40//49 96//49 92//49 
f 96//49 97//49 92//49 
o mesh49
f 93//50 92//50 97//50 
f 93//50 98//50 99//50 
f 99//50 95//50 93//50 
f 97//50 98//50 93//50 
o mesh50
f 98//51 100//51 101//51 
f 101//51 99//51 98//51 
o mesh51
f 99//52 101//52 94//52 
f 94//52 95//52 99//52 
o mesh52
f 98//53 97//53 96//53 
f 96//53 100//53 98//53 
o mesh53
f 102//54 96//54 40//54 
f 102//54 103//54 96//54 
f 40//54 33//54 102//54 
o mesh54
f 104//55 33//55 30//55 
f 104//55 102//55 33//55 
f 30//55 29//55 104//55 
o mesh55
f 105//56 100//56 96//56 
f 96//56 103//56 105//56 
o mesh56
f 104//57 106//57 107//57 
f 105//57 103//57 102//57 
f 102//57 104//57 105//57 
f 107//57 105//57 104//57 
o mesh57
f 107//58 108//58 100//58 
f 100//58 105//58 107//58 
o mesh58
f 107//59 106//59 109//59 
f 109//59 108//59 107//59 
o mesh59
f 79//60 81//60 85//60 
f 110//60 80//60 79//60 
f 79//60 111//60 110//60 
f 85//60 111//60 79//60 
o mesh60
f 111//61 85//61 87//61 
f 87//61 112//61 111//61 
f 87//61 90//61 112//61 
o mesh61
f 110//62 113//62 114//62 
f 113//62 110//62 111//62 
f 111//62 112//62 113//62 
f 114//62 115//62 110//62 
o mesh62
f 116//63 117//63 75//63 
f 118//63 62//63 75//63 
f 75//63 117//63 118//63 
f 75//63 78//63 116//63 
o mesh63
f 118//64 119//64 65//64 
f 119//64 120//64 65//64 
f 65//64 63//64 118//64 
f 63//64 62//64 118//64 
o mesh64
f 121//65 67//65 120//65 
f 120//65 67//65 64//65 
f 64//65 65//65 120//65 
f 120//65 122//65 121//65 
o mesh65
f 121//66 123//66 124//66 
f 68//66 66//66 67//66 
f 67//66 121//66 68//66 
f 124//66 68//66 121//66 
o mesh66
f 119//67 125//67 122//67 
f 125//67 126//67 122//67 
f 126//67 127//67 122//67 
f 122//67 120//67 119//67 
o mesh67
f 128//68 125//68 119//68 
f 118//68 117//68 129//68 
f 129//68 128//68 118//68 
f 119//68 118//68 128//68 
o mesh68
f 117//69 116//69 130//69 
f 130//69 129//69 117//69 
f 130//69 131//69 129//69 
o mesh69
f 76//70 132//70 116//70 
f 133//70 130//70 116//70 
f 116//70 132//70 133//70 
f 116//70 78//70 76//70 
o mesh70
f 132//71 76//71 77//71 
f 77//71 134//71 132//71 
f 77//71 80//71 134//71 
o mesh71
f 110//72 135//72 136//72 
f 110//72 115//72 135//72 
f 136//72 80//72 110//72 
o mesh72
f 114//73 137//73 138//73 
f 138//73 115//73 114//73 
f 138//73 135//73 115//73 
o mesh73
f 113//74 139//74 140//74 
f 140//74 114//74 113//74 
f 140//74 137//74 114//74 
o mesh74
f 112//75 90//75 141//75 
f 141//75 139//75 112//75 
f 139//75 113//75 112//75 
o mesh75
f 142//76 90//76 91//76 
f 91//76 94//76 142//76 
f 94//76 143//76 142//76 
o mesh76
f 142//77 144//77 141//77 
f 142//77 145//77 144//77 
f 141//77 90//77 142//77 
o mesh77
f 134//78 80//78 136//78 
f 136//78 146//78 134//78 
f 146//78 147//78 134//78 
o mesh78
f 132//79 147//79 148//79 
f 132//79 134//79 147//79 
f 148//79 133//79 132//79 
o mesh79
f 148//80 131//80 130//80 
f 148//80 149//80 150//80 
f 150//80 131//80 148//80 
f 130//80 133//80 148//80 
o mesh80
f 147//81 146//81 151//81 
f 151//81 149//81 147//81 
f 149//81 148//81 147//81 
o mesh81
f 128//82 129//82 152//82 
f 152//82 129//82 131//82 
f 131//82 150//82 152//82 
f 152//82 153//82 128//82 
o mesh82
f 128//83 154//83 155//83 
f 128//83 153//83 154//83 
f 155//83 125//83 128//83 
f 155//83 126//83 125//83 
o mesh83
f 156//84 143//84 94//84 
f 94//84 101//84 156//84 
o mesh84
f 142//85 157//85 158//85 
f 142//85 143//85 156//85 
f 156//85 157//85 142//85 
f 158//85 145//85 142//85 
o mesh85
f 159//86 157//86 156//86 
f 156//86 101//86 159//86 
o mesh86
f 160//87 161//87 101//87 
f 101//87 100//87 160//87 
o mesh87
f 160//88 100//88 108//88 
f 108//88 162//88 160//88 
o mesh88
f 160//89 162//89 163//89 
f 164//89 161//89 160//89 
f 163//89 164//89 160//89 
o mesh89
f 164//90 159//90 101//90 
f 101//90 161//90 164//90 
o mesh90
f 163//91 165//91 159//91 
f 159//91 164//91 163//91 
o mesh91
f 165//92 163//92 162//92 
f 162//92 108//92 165//92 
o mesh92
f 157//93 159//93 166//93 
f 166//93 158//93 157//93 
o mesh93
f 121//94 127//94 167//94 
f 168//94 123//94 167//94 
f 121//94 122//94 127//94 
f 167//94 123//94 121//94 
f 167//94 169//94 168//94 
o mesh94
f 170//95 126//95 155//95 
f 170//95 167//95 127//95 
f 127//95 126//95 170//95 
f 155//95 171//95 170//95 
o mesh95
f 124//96 123//96 172//96 
f 123//96 168//96 172//96 
f 172//96 173//96 124//96 
o mesh96
f 68//97 124//97 174//97 
f 124//97 173//97 174//97 
f 174//97 175//97 68//97 
f 175//97 4//97 68//97 
o mesh97
f 176//98 21//98 4//98 
f 4//98 175//98 176//98 
f 175//98 177//98 176//98 
o mesh98
f 178//99 24//99 22//99 
f 22//99 21//99 178//99 
f 21//99 176//99 178//99 
o mesh99
f 178//100 176//100 177//100 
f 177//100 179//100 178//100 
f 179//100 180//100 178//100 
o mesh100
f 177//101 181//101 182//101 
f 177//101 175//101 174//101 
f 174//101 181//101 177//101 
f 182//101 179//101 177//101 
o mesh101
f 183//102 184//102 173//102 
f 173//102 184//102 181//102 
f 181//102 174//102 173//102 
f 173//102 172//102 183//102 
o mesh102
f 185//103 186//103 182//103 
f 182//103 184//103 185//103 
f 182//103 181//103 184//103 
o mesh103
f 187//104 180//104 186//104 
f 179//104 182//104 186//104 
f 186//104 180//104 179//104 
f 186//104 188//104 187//104 
o mesh104
f 180//105 187//105 189//105 
f 189//105 178//105 180//105 
f 189//105 24//105 178//105 
o mesh105
f 171//106 155//106 154//106 
f 154//106 190//106 171//106 
f 190//106 191//106 171//106 
o mesh106
f 192//107 193//107 170//107 
f 171//107 191//107 192//107 
f 170//107 171//107 192//107 
o mesh107
f 193//108 194//108 169//108 
f 169//108 167//108 193//108 
f 167//108 170//108 193//108 
o mesh108
f 192//109 195//109 196//109 
f 196//109 194//109 192//109 
f 194//109 193//109 192//109 
o mesh109
f 197//110 168//110 169//110 
f 183//110 172//110 168//110 
f 198//110 197//110 194//110 
f 168//110 197//110 183//110 
f 169//110 194//110 197//110 
f 194//110 196//110 198//110 
o mesh110
f 183//111 197//111 199//111 
f 183//111 200//111 185//111 
f 185//111 184//111 183//111 
f 199//111 200//111 183//111 
o mesh111
f 186//112 185//112 201//112 
f 200//112 202//112 201//112 
f 201//112 185//112 200//112 
f 201//112 188//112 186//112 
o mesh112
f 201//113 203//113 187//113 
f 204//113 189//113 187//113 
f 187//113 203//113 204//113 
f 187//113 188//113 201//113 
o mesh113
f 205//114 206//114 24//114 
f 24//114 189//114 205//114 
f 189//114 204//114 205//114 
o mesh114
f 206//115 207//115 208//115 
f 23//115 24//115 206//115 
f 206//115 26//115 23//115 
f 208//115 26//115 206//115 
o mesh115
f 209//116 210//116 207//116 
f 207//116 205//116 209//116 
f 207//116 206//116 205//116 
o mesh116
f 204//117 203//117 211//117 
f 212//117 209//117 205//117 
f 205//117 204//117 212//117 
f 211//117 212//117 204//117 
o mesh117
f 211//118 203//118 201//118 
f 201//118 202//118 211//118 
o mesh118
f 26//119 208//119 213//119 
f 213//119 27//119 26//119 
f 213//119 29//119 27//119 
o mesh119
f 199//120 197//120 214//120 
f 197//120 198//120 214//120 
f 214//120 215//120 199//120 
o mesh120
f 216//121 198//121 196//121 
f 217//121 214//121 198//121 
f 198//121 216//121 217//121 
f 196//121 195//121 216//121 
f 195//121 218//121 216//121 
o mesh121
f 219//122 220//122 218//122 
f 218//122 192//122 219//122 
f 191//122 190//122 219//122 
f 219//122 192//122 191//122 
f 218//122 195//122 192//122 
o mesh122
f 221//123 219//123 153//123 
f 221//123 222//123 219//123 
f 153//123 219//123 190//123 
f 190//123 154//123 153//123 
f 153//123 152//123 221//123 
o mesh123
f 223//124 221//124 150//124 
f 221//124 152//124 150//124 
f 150//124 149//124 223//124 
f 149//124 151//124 223//124 
o mesh124
f 222//125 224//125 220//125 
f 224//125 225//125 220//125 
f 220//125 219//125 222//125 
o mesh125
f 226//126 216//126 225//126 
f 225//126 216//126 218//126 
f 218//126 220//126 225//126 
f 225//126 227//126 226//126 
o mesh126
f 224//127 222//127 221//127 
f 224//127 223//127 228//127 
f 228//127 229//127 224//127 
f 221//127 223//127 224//127 
o mesh127
f 224//128 229//128 227//128 
f 227//128 229//128 230//128 
f 230//128 231//128 227//128 
f 227//128 225//128 224//128 
o mesh128
f 228//129 232//129 233//129 
f 233//129 229//129 228//129 
f 233//129 230//129 229//129 
o mesh129
f 234//130 151//130 146//130 
f 146//130 136//130 135//130 
f 146//130 235//130 234//130 
f 146//130 138//130 235//130 
f 135//130 138//130 146//130 
o mesh130
f 232//131 228//131 236//131 
f 223//131 151//131 236//131 
f 236//131 228//131 223//131 
f 236//131 237//131 232//131 
o mesh131
f 234//132 238//132 236//132 
f 236//132 151//132 234//132 
o mesh132
f 235//133 138//133 137//133 
f 137//133 239//133 235//133 
f 137//133 140//133 239//133 
o mesh133
f 240//134 241//134 238//134 
f 240//134 234//134 235//134 
f 235//134 239//134 240//134 
f 238//134 234//134 240//134 
o mesh134
f 236//135 238//135 242//135 
f 241//135 243//135 242//135 
f 242//135 238//135 241//135 
f 242//135 237//135 236//135 
o mesh135
f 242//136 244//136 232//136 
f 245//136 233//136 232//136 
f 232//136 244//136 245//136 
f 232//136 237//136 242//136 
o mesh136
f 246//137 230//137 233//137 
f 246//137 247//137 231//137 
f 231//137 230//137 246//137 
f 233//137 245//137 246//137 
o mesh137
f 248//138 226//138 231//138 
f 226//138 227//138 231//138 
f 231//138 247//138 248//138 
f 247//138 249//138 248//138 
o mesh138
f 217//139 216//139 226//139 
f 217//139 248//139 250//139 
f 250//139 251//139 217//139 
f 226//139 248//139 217//139 
o mesh139
f 217//140 251//140 215//140 
f 215//140 251//140 252//140 
f 252//140 253//140 215//140 
f 215//140 214//140 217//140 
o mesh140
f 200//141 199//141 253//141 
f 199//141 215//141 253//141 
f 253//141 254//141 200//141 
f 254//141 202//141 200//141 
o mesh141
f 240//142 255//142 256//142 
f 256//142 243//142 240//142 
f 243//142 241//142 240//142 
o mesh142
f 239//143 140//143 257//143 
f 257//143 240//143 239//143 
f 257//143 255//143 240//143 
o mesh143
f 244//144 242//144 243//144 
f 243//144 258//144 244//144 
f 243//144 256//144 258//144 
o mesh144
f 244//145 259//145 246//145 
f 246//145 245//145 244//145 
f 244//145 258//145 259//145 
o mesh145
f 259//146 260//146 249//146 
f 249//146 247//146 259//146 
f 247//146 246//146 259//146 
o mesh146
f 258//147 256//147 261//147 
f 261//147 260//147 258//147 
f 260//147 259//147 258//147 
o mesh147
f 250//148 262//148 263//148 
f 263//148 251//148 250//148 
f 263//148 252//148 251//148 
o mesh148
f 264//149 252//149 263//149 
f 264//149 254//149 253//149 
f 253//149 252//149 264//149 
f 263//149 265//149 264//149 
o mesh149
f 266//150 267//150 202//150 
f 202//150 254//150 266//150 
f 254//150 264//150 266//150 
o mesh150
f 266//151 264//151 265//151 
f 268//151 269//151 266//151 
f 265//151 268//151 266//151 
o mesh151
f 270//152 268//152 262//152 
f 265//152 263//152 262//152 
f 262//152 268//152 265//152 
f 262//152 271//152 270//152 
o mesh152
f 262//153 250//153 272//153 
f 248//153 249//153 272//153 
f 272//153 250//153 248//153 
f 272//153 271//153 262//153 
o mesh153
f 269//154 273//154 274//154 
f 274//154 267//154 269//154 
f 267//154 266//154 269//154 
o mesh154
f 211//155 202//155 267//155 
f 267//155 274//155 275//155 
f 267//155 212//155 211//155 
f 267//155 276//155 212//155 
f 275//155 276//155 267//155 
o mesh155
f 212//156 276//156 277//156 
f 277//156 209//156 212//156 
f 277//156 210//156 209//156 
o mesh156
f 278//157 277//157 276//157 
f 276//157 279//157 278//157 
f 276//157 275//157 279//157 
o mesh157
f 280//158 275//158 274//158 
f 280//158 279//158 275//158 
f 274//158 273//158 280//158 
o mesh158
f 268//159 270//159 281//159 
f 281//159 269//159 268//159 
f 281//159 273//159 269//159 
o mesh159
f 272//160 282//160 270//160 
f 283//160 281//160 270//160 
f 270//160 282//160 283//160 
f 270//160 271//160 272//160 
o mesh160
f 284//161 282//161 272//161 
f 272//161 249//161 284//161 
o mesh161
f 285//162 286//162 273//162 
f 273//162 281//162 285//162 
f 281//162 283//162 285//162 
o mesh162
f 287//163 288//163 285//163 
f 287//163 283//163 282//163 
f 282//163 284//163 287//163 
f 285//163 283//163 287//163 
o mesh163
f 284//164 249//164 260//164 
f 260//164 261//164 289//164 
f 260//164 287//164 284//164 
f 260//164 290//164 287//164 
f 289//164 290//164 260//164 
o mesh164
f 291//165 289//165 261//165 
f 291//165 292//165 289//165 
f 261//165 256//165 291//165 
o mesh165
f 255//166 257//166 293//166 
f 291//166 256//166 255//166 
f 255//166 294//166 291//166 
f 293//166 294//166 255//166 
o mesh166
f 288//167 295//167 296//167 
f 296//167 285//167 288//167 
f 296//167 286//167 285//167 
o mesh167
f 286//168 296//168 297//168 
f 280//168 273//168 286//168 
f 286//168 298//168 280//168 
f 297//168 298//168 286//168 
o mesh168
f 280//169 299//169 278//169 
f 299//169 280//169 298//169 
f 298//169 300//169 299//169 
f 278//169 279//169 280//169 
o mesh169
f 299//170 301//170 210//170 
f 210//170 278//170 299//170 
f 210//170 277//170 278//170 
o mesh170
f 302//171 208//171 207//171 
f 302//171 303//171 213//171 
f 213//171 208//171 302//171 
f 207//171 210//171 302//171 
o mesh171
f 287//172 290//172 304//172 
f 304//172 288//172 287//172 
f 304//172 295//172 288//172 
o mesh172
f 305//173 304//173 290//173 
f 290//173 292//173 305//173 
f 290//173 289//173 292//173 
o mesh173
f 291//174 306//174 305//174 
f 291//174 294//174 307//174 
f 307//174 306//174 291//174 
f 305//174 292//174 291//174 
o mesh174
f 306//175 308//175 295//175 
f 295//175 305//175 306//175 
f 295//175 304//175 305//175 
o mesh175
f 300//176 309//176 310//176 
f 310//176 301//176 300//176 
f 301//176 299//176 300//176 
o mesh176
f 302//177 210//177 301//177 
f 301//177 311//177 302//177 
f 301//177 312//177 311//177 
f 301//177 310//177 312//177 
o mesh177
f 313//178 302//178 311//178 
f 311//178 314//178 313//178 
f 313//178 303//178 302//178 
o mesh178
f 313//179 29//179 213//179 
f 213//179 303//179 313//179 
o mesh179
f 314//180 315//180 29//180 
f 29//180 313//180 314//180 
o mesh180
f 104//181 29//181 315//181 
f 315//181 109//181 104//181 
f 109//181 106//181 104//181 
o mesh181
f 314//182 311//182 312//182 
f 312//182 315//182 314//182 
o mesh182
f 316//183 109//183 315//183 
f 316//183 317//183 109//183 
f 315//183 312//183 316//183 
o mesh183
f 318//184 108//184 109//184 
f 109//184 317//184 318//184 
o mesh184
f 319//185 312//185 310//185 
f 319//185 316//185 312//185 
f 310//185 309//185 319//185 
o mesh185
f 320//186 316//186 319//186 
f 316//186 320//186 318//186 
f 318//186 317//186 316//186 
f 319//186 321//186 320//186 
o mesh186
f 165//187 108//187 318//187 
f 318//187 320//187 165//187 
o mesh187
f 298//188 297//188 322//188 
f 322//188 300//188 298//188 
f 322//188 309//188 300//188 
o mesh188
f 323//189 297//189 296//189 
f 323//189 324//189 322//189 
f 322//189 297//189 323//189 
f 296//189 295//189 323//189 
o mesh189
f 294//190 293//190 325//190 
f 325//190 307//190 294//190 
f 325//190 326//190 307//190 
o mesh190
f 327//191 293//191 257//191 
f 327//191 328//191 325//191 
f 325//191 293//191 327//191 
f 257//191 140//191 327//191 
o mesh191
f 327//192 140//192 139//192 
f 139//192 329//192 327//192 
f 139//192 144//192 329//192 
f 139//192 141//192 144//192 
o mesh192
f 145//193 166//193 330//193 
f 145//193 158//193 166//193 
f 330//193 144//193 145//193 
o mesh193
f 329//194 331//194 328//194 
f 328//194 327//194 329//194 
f 329//194 332//194 331//194 
o mesh194
f 331//195 326//195 325//195 
f 325//195 328//195 331//195 
o mesh195
f 332//196 330//196 326//196 
f 326//196 331//196 332//196 
o mesh196
f 332//197 329//197 144//197 
f 144//197 330//197 332//197 
o mesh197
f 307//198 326//198 333//198 
f 333//198 308//198 307//198 
f 308//198 306//198 307//198 
o mesh198
f 323//199 295//199 308//199 
f 308//199 334//199 323//199 
f 308//199 335//199 334//199 
f 308//199 333//199 335//199 
o mesh199
f 336//200 326//200 330//200 
f 330//200 166//200 336//200 
f 166//200 337//200 336//200 
o mesh200
f 338//201 337//201 166//201 
f 166//201 159//201 338//201 
o mesh201
f 336//202 335//202 333//202 
f 336//202 339//202 335//202 
f 333//202 326//202 336//202 
o mesh202
f 336//203 337//203 338//203 
f 336//203 340//203 341//203 
f 341//203 339//203 336//203 
f 338//203 340//203 336//203 
o mesh203
f 339//204 342//204 343//204 
f 339//204 341//204 342//204 
f 343//204 335//204 339//204 
o mesh204
f 340//205 338//205 159//205 
f 159//205 165//205 340//205 
o mesh205
f 320//206 321//206 342//206 
f 342//206 165//206 320//206 
o mesh206
f 340//207 165//207 342//207 
f 342//207 341//207 340//207 
o mesh207
f 319//208 309//208 343//208 
f 343//208 342//208 319//208 
f 342//208 321//208 319//208 
o mesh208
f 344//209 323//209 334//209 
f 344//209 324//209 323//209 
f 334//209 345//209 344//209 
o mesh209
f 344//210 309//210 322//210 
f 322//210 324//210 344//210 
o mesh210
f 345//211 343//211 309//211 
f 309//211 344//211 345//211 
o mesh211
f 345//212 334//212 335//212 
f 335//212 343//212 345//212 
o mesh212
f 346//213 347//213 348//213 
f 348//213 349//213 346//213 
f 349//213 350//213 346//213 
o mesh213
f 351//214 352//214 347//214 
f 352//214 351//214 353//214 
f 353//214 354//214 352//214 
f 347//214 346//214 351//214 
o mesh214
f 351//215 346//215 350//215 
f 351//215 355//215 356//215 
f 356//215 357//215 351//215 
f 350//215 355//215 351//215 
o mesh215
f 353//216 351//216 357//216 
f 357//216 358//216 353//216 
f 358//216 359//216 353//216 
o mesh216
f 352//217 360//217 361//217 
f 352//217 362//217 348//217 
f 348//217 347//217 352//217 
f 361//217 362//217 352//217 
o mesh217
f 360//218 352//218 354//218 
f 354//218 363//218 360//218 
f 363//218 364//218 360//218 
o mesh218
f 365//219 366//219 363//219 
f 354//219 353//219 359//219 
f 359//219 365//219 354//219 
f 363//219 354//219 365//219 
o mesh219
f 362//220 367//220 349//220 
f 367//220 362//220 368//220 
f 368//220 369//220 367//220 
f 349//220 348//220 362//220 
o mesh220
f 355//221 367//221 370//221 
f 367//221 355//221 350//221 
f 350//221 349//221 367//221 
f 370//221 371//221 355//221 
o mesh221
f 356//222 355//222 371//222 
f 371//222 372//222 356//222 
f 372//222 373//222 356//222 
o mesh222
f 374//223 375//223 358//223 
f 357//223 356//223 373//223 
f 373//223 374//223 357//223 
f 358//223 357//223 374//223 
o mesh223
f 365//224 375//224 376//224 
f 375//224 365//224 359//224 
f 359//224 358//224 375//224 
f 376//224 377//224 365//224 
o mesh224
f 368//225 362//225 361//225 
f 361//225 378//225 368//225 
f 378//225 379//225 368//225 
o mesh225
f 380//226 381//226 378//226 
f 361//226 360//226 364//226 
f 364//226 380//226 361//226 
f 378//226 361//226 380//226 
o mesh226
f 380//227 366//227 382//227 
f 366//227 380//227 364//227 
f 364//227 363//227 366//227 
f 382//227 383//227 380//227 
o mesh227
f 384//228 382//228 366//228 
f 365//228 377//228 384//228 
f 366//228 365//228 384//228 
o mesh228
f 370//229 367//229 369//229 
f 369//229 385//229 370//229 
f 385//229 386//229 370//229 
o mesh229
f 387//230 388//230 385//230 
f 369//230 368//230 379//230 
f 379//230 387//230 369//230 
f 385//230 369//230 387//230 
o mesh230
f 389//231 390//231 372//231 
f 371//231 370//231 386//231 
f 386//231 389//231 371//231 
f 372//231 371//231 389//231 
o mesh231
f 374//232 390//232 391//232 
f 390//232 374//232 373//232 
f 373//232 372//232 390//232 
f 391//232 392//232 374//232 
o mesh232
f 393//233 376//233 375//233 
f 374//233 392//233 393//233 
f 375//233 374//233 393//233 
o mesh233
f 387//234 381//234 394//234 
f 381//234 387//234 379//234 
f 379//234 378//234 381//234 
f 394//234 395//234 387//234 
o mesh234
f 396//235 394//235 381//235 
f 380//235 383//235 396//235 
f 381//235 380//235 396//235 
o mesh235
f 389//236 388//236 397//236 
f 388//236 389//236 386//236 
f 386//236 385//236 388//236 
f 397//236 398//236 389//236 
o mesh236
f 399//237 397//237 388//237 
f 387//237 395//237 399//237 
f 388//237 387//237 399//237 
o mesh237
f 400//238 391//238 390//238 
f 389//238 398//238 400//238 
f 390//238 389//238 400//238 
o mesh238
f 401//239 398//239 397//239 
f 398//239 401//239 402//239 
f 402//239 400//239 398//239 
f 397//239 399//239 401//239 
o mesh239
f 403//240 395//240 394//240 
f 395//240 403//240 401//240 
f 401//240 399//240 395//240 
f 394//240 396//240 403//240 
o mesh240
f 402//241 392//241 391//241 
f 392//241 402//241 404//241 
f 404//241 393//241 392//241 
f 391//241 400//241 402//241 
o mesh241
f 405//242 383//242 382//242 
f 383//242 405//242 403//242 
f 403//242 396//242 383//242 
f 382//242 384//242 405//242 
o mesh242
f 404//243 377//243 376//243 
f 377//243 404//243 405//243 
f 405//243 384//243 377//243 
f 376//243 393//243 404//243 
o mesh243
f 403//244 405//244 404//244 
f 404//244 402//244 403//244 
f 402//244 401//244 403//244 
